<?xml version="1.0" encoding="UTF-8"?>
<svg id="Layer_1" data-name="Layer 1" xmlns="http://www.w3.org/2000/svg" viewBox="0 0 1000 566.98">
  <path d="M789.65,281.69c-1.63-1.16-3.29-2.29-4.97-3.37-7.78-5.05-16.12-9.35-24.94-12.77-3.68-1.02-7.52-1.77-11.49-2.23-1.23-.14-2.46-.25-3.7-.33-1.85-.13-3.73-.2-5.63-.2-6.32,0-12.42.73-18.15,2.07-6.43,2.02-12.87,4.84-19.32,8.46-3.02,1.67-5.93,3.45-8.71,5.35-.01.01-.01.02-.02.02-1.81,1.22-3.57,2.49-5.28,3.82t-.01.01c-6.95,5.36-13.07,11.48-18.35,18.35-8.59,11.17-12.89,21.57-12.89,31.18,0,3.52.86,5.94,2.57,7.27-15.36-.19-30.72-.31-46.08-.4h-9.63s4.81-2.67,4.81-2.67l9.74-5.35c28.01-15.47,46.76-37.94,56.24-67.42h-31.32c-2.1,6.05-5.12,12.67-9.07,19.87h3.44l.76-1.53c1.85-3.69,3.77-6.03,5.78-7.02,2-.99,5.78-1.48,11.32-1.48h8.11c-4.39,22.92-20.75,41.16-49.08,54.72l.95-2.58,5.16-13.27c6.24-16.81,9.36-29.67,9.36-38.58,0-8.15-2.14-12.23-6.4-12.23-3.04,0-8.38,2.38-15.99,7.13.28-.94.42-1.82.42-2.64,0-3.69-2.51-5.54-7.54-5.54-8.66,0-18.53,4.14-29.61,12.42-9.1,6.81-16.56,15.47-22.39,25.97-5.82,10.51-8.74,20.53-8.74,30.08,0,4.92,1.27,8.4,3.78,10.46l-4.63.04c-11.08.09-22.16.19-33.24.36,3.56-1.46,7.38-3.84,11.45-7.13,8.47-6.88,12.7-14.17,12.7-21.87,0-3.95-.76-7.58-2.29-10.89l-4.58-9.83c-1.28-2.81-1.91-5.22-1.91-7.26,0-3.82,1.46-7.18,4.39-10.08,2.93-2.89,6.33-4.34,10.22-4.34,4.26,0,6.39,1.21,6.39,3.63,0,1.14-.66,3.09-2,5.82-.13.32-.35.83-.67,1.53l2.39,1.62,1.05-1.52c1.84-2.81,3.59-5.61,5.25-8.41l4.68-7.83,1.05-1.81c-2.04-.32-4.2-.48-6.49-.48-5.92,0-10.84.87-14.76,2.62-3.91,1.76-7.84,4.8-11.79,9.12-5.86,6.56-8.79,12.48-8.79,17.77,0,2.93.54,5.6,1.63,8.02l5.63,12.32c1.27,2.86,1.91,5.41,1.91,7.64,0,4.2-1.78,7.89-5.35,11.08-3.56,3.18-7.67,4.77-12.32,4.77-5.85,0-10.75-3.37-14.7-10.12-1.53,2.8-2.3,5.7-2.3,8.69,0,2.55,1.06,4.63,3.16,6.25.46.36.95.67,1.47.95-8.9.18-17.8.38-26.7.56l-5.35.1c4.29-1.26,8.98-3.94,14.07-8.05,8.46-6.88,12.7-14.17,12.7-21.87,0-3.95-.77-7.58-2.3-10.89l-4.58-9.83c-1.27-2.81-1.91-5.22-1.91-7.26,0-3.82,1.46-7.18,4.39-10.08,2.93-2.89,6.34-4.34,10.22-4.34,4.27,0,6.4,1.21,6.4,3.63,0,1.14-.67,3.09-2.01,5.82-.12.32-.34.83-.66,1.53l2.38,1.62,1.05-1.52c1.85-2.81,3.6-5.61,5.26-8.41l4.68-7.83,1.05-1.81c-2.04-.32-4.2-.48-6.5-.48-5.92,0-10.84.87-14.75,2.62-3.92,1.76-7.85,4.8-11.8,9.12-5.85,6.56-8.78,12.48-8.78,17.77,0,2.93.54,5.6,1.62,8.02l5.64,12.32c1.27,2.86,1.91,5.41,1.91,7.64,0,4.2-1.79,7.89-5.35,11.08-3.57,3.18-7.67,4.77-12.32,4.77-5.86,0-10.76-3.37-14.71-10.12-.37.69-.7,1.39-.99,2.09-2.82,1.02-5.01,1.54-6.55,1.54-2.23,0-3.31-.99-3.25-2.96.13-2.55,3.37-11.56,9.74-27.03,6.37-15.47,11.78-27.47,16.24-36-4.91,1.97-9.2,3.15-12.9,3.53l-1.24,3.06c-6.05,15.53-14.16,29.75-24.35,42.64s-18.37,19.34-24.54,19.34c-2.42,0-3.63-1.37-3.63-4.11,0-2.93,3.18-10.92,9.55-23.97l8.31-17c5.66-11.65,8.5-20.02,8.5-25.12-5.92,2.55-13.34,5.13-22.25,7.74l-1.53.48.76,2.86c2.55-.76,4.33-1.14,5.35-1.14,2.29,0,3.37,1.05,3.25,3.15-.13,2.16-1.37,5.73-3.73,10.69l-7.64,16.05c-5.11,10.72-8.54,19.05-10.31,25.03l-.26-.3c-4.59,3.5-8.09,5.25-10.51,5.25-1.34,0-2.94-.78-4.82-2.34s-6.04-5.52-12.46-11.89l-8.12-8.11c-10.19-10.19-19.33-18.63-27.41-25.31l3.38-8.36c.16-.37.33-.73.49-1.09,3.49-.26,7.2-.39,11.12-.39,5.03,0,9.74.13,14.14.39,1.91-5.67,6.59-9.97,14.04-12.9,15.34-5.92,23.01-14.67,23.01-26.26,0-8.72-5.06-15.42-15.18-20.1-7.81-3.61-18.23-5.83-31.27-6.66.46-2.68.97-5.59,1.55-8.73,2.93-16.04,5.38-27.4,7.36-34.09,3.43-11.65,8.29-21.01,14.56-28.07,6.27-7.07,12.88-10.6,19.82-10.6,5.28,0,7.92,1.65,7.92,4.96,0,1.08-.22,2.42-.67,4.01l-.47,1.82,3.53.57,7.54-25.12c-7,0-14.03,1.98-21.1,5.92-5.35,3-10.36,6.87-15.04,11.61s-12.31,13.64-22.87,26.69l-42.25,52.3c-4.52.53-9.01,1.19-13.46,2-1.24-7.2-2.98-15.18-5.22-23.93-2.1-8.22-3.5-14.01-4.2-17.38,7.06-11.33,12.12-20.68,15.18-28.03,3.06-7.36,4.58-13.86,4.58-19.53,0-8.79-2.57-13.18-7.73-13.18s-10.35,5.57-15.38,16.71c-5.03,11.14-7.54,22.48-7.54,34,0,4.65.6,10.41,1.81,17.28-13.49,19.04-27.64,33.48-42.44,43.31-14.81,9.84-29.85,14.76-45.13,14.76-17.38,0-31.5-4.57-42.35-13.71-10.86-9.13-16.28-21.02-16.28-35.67,0-11.71,3.61-21.1,10.84-28.17,7.22-7.06,16.82-10.6,28.79-10.6,9.36,0,19.64,2.92,30.84,8.74,11.21,5.83,22.6,14.18,34.19,25.07l2.49,2.29,24.16-13.27-1.91-2.87c-6.18,3.44-10.64,5.16-13.37,5.16-2.3,0-5.77-1.94-10.41-5.83-12.35-10.18-22.41-17.09-30.18-20.72-7.77-3.63-16.43-5.44-25.98-5.44-16.55,0-29.97,4.64-40.25,13.94-10.28,9.3-15.42,21.42-15.42,36.38,0,11.53,2.96,21.52,8.88,29.99,5.16,7.51,12.24,13.47,21.25,17.86,9.01,4.39,18.54,6.59,28.6,6.59,15.41,0,31.23-5.41,47.46-16.24,16.24-10.82,31.93-26.39,47.08-46.69.26,1.27.42,1.97.48,2.1l2.96,12.89c1.39,6.15,2.49,11.63,3.3,16.44-.92.21-1.84.43-2.76.66-17.67,4.36-32.64,10.4-44.93,18.1-13.24,8.34-23.46,18.16-30.66,29.46-7.19,11.3-10.79,23.16-10.79,35.57,0,13.82,4.57,25.07,13.71,33.76,4.96,4.73,10.74,8.16,17.32,10.31-16.93.35-33.85.83-50.78,1.61v.6c24.84,1.15,49.68,1.65,74.52,2.03l18.63.22,18.63.11c12.42.08,24.84.02,37.26-.16l37.26-.83,18.63-.44,18.63-.26c12.42-.09,24.84-.08,37.26.05l9.32.1,9.32.17,18.63.35c12.42.25,24.84.58,37.26.77,12.42.21,24.84.32,37.26.41l37.26.3c6.21.07,12.42.07,18.63.07h18.63c24.84-.14,49.68-.35,74.52-.84,24.84-.44,49.68-1.09,74.52-2.06v-.6c-21.15-.83-42.3-1.41-63.45-1.84,11.24-2.85,20.12-6.73,26.67-11.65l-1.72-2.49c-4.08,2.42-6.91,3.7-8.5,3.82-1.72.13-2.58-.73-2.58-2.58,0-2.29,3.02-10.21,9.07-23.77l.77-1.63c-4.52,1.53-8.31,2.42-11.37,2.68,6.24-8.03,9.36-15.12,9.36-21.3,0-4.46-1.37-7.51-4.11-9.17-2.35,10.83-6.78,21.27-13.27,31.32-4.71,7.26-10.06,13.65-16.04,19.15-1.23,1.13-2.4,2.15-3.51,3.04-.26.22-.52.42-.78.62-3.94,3.07-7.09,4.6-9.47,4.6-3.75,0-5.63-2.54-5.63-7.64,0-9.55,3.98-19.18,11.93-28.88.67-.83,1.37-1.65,2.11-2.48.46-.53.94-1.05,1.43-1.58,14.01-15.09,30.72-22.64,50.14-22.64,4.07,0,8.26.39,12.59,1.15h.01c6.07,1.87,12.02,4.1,17.78,6.78,13.27,6.12,25.51,14.4,36.16,24.38.41.38.82.77,1.23,1.16,4.83,4.63,9.32,9.61,13.42,14.9,46.77,59.19,38.26,157.2-37.77,187.07-50.85,20.03-113.41-3.13-126.71-58.87-8.05-33.57,4.68-70.25,37.41-84.99,34.66-15.66,76.7-.13,84.03,39.41,1.31,7.23,1.13,14.77-.49,22.09l.87.24c2.4-7.22,3.32-15.02,2.57-22.73-2.15-20.15-13.43-35.63-29.14-44.47-.55-.31-1.1-.61-1.67-.9-10.71-5.6-23.33-8.21-36.45-7.22-.22.02-.44.04-.66.06-.62.05-1.23.11-1.84.19-42,4.73-69.01,41.14-66.24,82.93,1.66,31.72,21.06,61.74,49.52,75.85,57.37,27.94,130.13-3.73,152.92-62.23,24.16-60.12-.62-126.98-50.67-162.51ZM273.73,145.49c0-7.58.89-14.06,2.67-19.44,1.79-5.38,3.95-8.07,6.5-8.07,3.37,0,5.06,2.45,5.06,7.36,0,4.64-1.16,10.4-3.49,17.28-2.32,6.88-5.39,13.63-9.21,20.25-1.02-6.69-1.53-12.48-1.53-17.38ZM317.12,280.37l-4.92-4.29s2.95,2.58,4.92,4.29ZM372.01,235.12c0,8.4-3.29,14.99-9.88,19.77-6.59,4.77-15.65,7.16-27.17,7.16-1.49,0-3.99-.1-7.47-.28,4.04-11.41,6.56-23.91,10.41-49.29l.17.02c22.63,2.56,33.94,10.09,33.94,22.62ZM319.28,188.36c5.86-7.25,10.19-12.66,12.99-16.23l3.44-4.3c-3.06,12.59-5.79,25.47-8.21,38.64h-.85c-7.71,0-15.31.36-22.81,1.09l15.44-19.2ZM295.1,212.67l-4.94,6.06c-.51.64-1.53,1.94-3.06,3.92-.28-2.79-.66-5.73-1.14-8.83,2.98-.46,6.03-.84,9.14-1.15ZM197.44,292.13c0-20.43,9.49-38.39,28.46-53.86,13.16-10.68,29.53-18.16,49.1-22.44.75,5.07,1.12,9.28,1.12,12.64,0,4.27-1.12,8.57-3.34,12.89l2.38,1.72,2.1-2.67,21.2-26.17,1.63-2.02c5.91-.46,12.06-.69,18.44-.69,2.75,0,5.4.05,7.94.14-.42,5.26-2.98,31.65-14.2,64.2-.55-.36-1.02-.67-1.38-.93l-6.01-4.58c-6.31-4.71-12.8-7.07-19.49-7.07-8.91,0-18.44,4.03-28.6,12.08-10.15,8.06-14.73,15.74-14.83,23.17-.08,5.99,2.62,11.12,4.47,13.83,5.12,7.48,12.75,13.4,20.35,18.33-.4.16-.79.33-1.2.48-7.74,2.93-15.2,4.39-22.4,4.39-13.56,0-24.57-4.02-33.04-12.08-8.47-8.05-12.7-18.51-12.7-31.37ZM318.91,281.73c-.04.09-.07.15-.07.15h0c.02-.05.05-.1.07-.15ZM248.55,304.35c0-11.08,3.57-16.78,8.82-22.02,5.48-5.48,11.26-9.78,19.73-9.78,9.48,0,19.6,4.84,30.36,14.52-6.81,14.84-14.13,25.66-21.96,32.47-4.56,3.99-9.88,7.31-15.93,10-9.01-6.39-21.01-14.17-21.01-25.19ZM258.71,339.57l-2.95.04c5.05-1.57,10.15-3.69,15.28-6.37,1.64.89,3.31,1.71,5.03,2.44,4.01,1.73,8.22,2.96,12.5,3.77-3.74,0-7.49-.01-11.23.01l-18.63.11ZM314.6,339.63c-7.19-.1-14.38-.16-21.57-.18-5.62-1.06-11.07-2.85-16.17-5.46-1.2-.61-2.37-1.28-3.52-1.98,3.99-2.2,8.01-4.73,12.04-7.6,11.4-8.02,20.82-18.56,28.27-31.61,10.89,9.68,26.87,25.28,47.94,46.79l1.08,1.11-10.82-.25-37.26-.83ZM435.7,341l-9.32.1c-12.42.13-24.84.13-37.26.05l-18.63-.26-2.55-.06c4.19-3.11,8.73-6.67,13.59-10.67-.13.85-.19,1.61-.19,2.27,0,4.39,2.1,6.59,6.3,6.59,4.77,0,10.84-2.94,18.19-8.83,7.35-5.89,15.14-14.02,23.35-24.4-4.71,11.78-7.89,22.85-9.55,33.23l2.58-.95c8.46-3.23,15.04-5.93,19.71-8.12-.16.92-.23,1.84-.23,2.77,0,2.55,1.05,4.63,3.15,6.25,1.02.79,2.19,1.39,3.49,1.8l-3.32.06-9.32.17ZM575.43,339l-14.9.12c6.32-2.71,13.38-7.74,21.17-15.09,8.47-7.96,12.7-15,12.7-21.11,0-1.4-.44-2.99-1.34-4.77-4.26,10.38-9.63,18.86-16.09,25.45-6.46,6.59-12.68,9.88-18.67,9.88-5.47,0-8.21-3.28-8.21-9.83s1.69-13.63,5.06-21.78c3.38-8.15,7.67-15.28,12.89-21.39,7.39-8.66,14.61-12.99,21.68-12.99,3.95,0,5.92,1.53,5.92,4.59,0,4.26-2.69,8.23-8.07,11.89s-11.25,5.49-17.62,5.49c-1.59,0-3.72-.19-6.4-.58,1.15,3.32,3.22,4.97,6.21,4.97,2.8,0,6.8-1.05,11.99-3.15,5.19-2.1,9.47-4.39,12.84-6.88,3.63-2.73,6.65-5.81,9.07-9.21.51-.72.97-1.42,1.38-2.1l.44.81c3.95-2.67,6.68-4.01,8.21-4.01,2.68,0,4.01,3.09,4.01,9.26,0,5.73-1.88,14.93-5.63,27.6-3.51,11.84-7.5,22.75-11.95,32.75h-6.06c-6.21,0-12.42,0-18.63.07ZM683.55,331c.15-.11.29-.22.44-.33.26-.19.52-.39.79-.59,8.26-6.21,16.3-13.93,24.12-23.15-7.19,15.57-10.96,26.58-11.34,33.03-3.45-.07-6.9-.15-10.35-.21-6.18-.12-12.36-.22-18.54-.31,4.18-1.43,9.13-4.23,14.88-8.45Z"/>
</svg>